<svg xmlns="http://www.w3.org/2000/svg" width="75" height="65" fill="none" id="svg728162136_1983"><path d="M17.011 31.646c2.842 0 4.326-1.901 4.326-4.618 0-2.967-1.672-5.328-4.869-5.349-2.758 0-4.43 1.818-4.45 4.535 0 3.03 1.734 5.432 4.973 5.432m1.984 9.361c-2.09-.104-3.071-.23-4.367-.334-5.6 3.071-.898 7.104 5.161 6.477 3.908-.397 5.35-2.215 4.869-3.907-.314-1.129-1.61-2.069-5.663-2.236Z" fill="#757575"/><path d="M61.16 40.965c-2.047 0-3.76-1.15-5.871-3.657-3.343-4.053-6.039-7.292-6.039-7.292v5.287c-.041 3.698.168 4.283.502 5.14h-4.91c.418-1.087.606-1.463.627-5.161l.083-18.283c0-2.967-.188-4.283-.773-5.077l4.555-1.17-.084 17.697 6.039-5.6s1.19-1.044 2.257-2.444h5.202c-.25.083-1.17.292-4.492 3.364l-5.642 5.244s3.657 4.472 6.812 7.982c2.445 2.654 3.99 2.946 5.098 2.946.21 0 .46-.063.648-.125-.982.731-2.445 1.128-4.012 1.107m-26.097.146c-2.32 0-4.367-.48-6.477-1.358v-3.03c2.194 1.192 4.889 1.923 6.602 1.944 1.84 0 4.158-.46 4.158-2.633s-2.298-3.238-4.805-4.45c-2.758-1.317-5.725-2.8-5.705-6.164 0-4.096 3.991-5.85 7.543-5.83 1.902 0 3.824.48 5.475 1.4v2.967c-1.588-1.254-3.51-1.985-5.558-2.006-1.985 0-3.907.773-3.907 2.55 0 2.11 2.507 3.322 5.119 4.638 2.779 1.4 5.662 2.988 5.662 6.018 0 4.43-4.45 5.934-8.128 5.913m-8.797 5.16c-3.343 4.159-14.062 4.535-17.091.523-2.048-2.737.731-5.077 3.719-6.352-2.048-.564-3.092-2.11-3.092-3.594 0-1.525 1.065-2.841 3.05-3.76-2.633-1.004-4.45-3.511-4.43-6.332 0-4.095 3.24-7.271 8.4-7.23 1.108 0 2.424.272 3.552.607.92.271 1.922.46 2.967.48 1.254 0 2.696-.042 3.907-.376v2.654c-.668-.126-2.778-.293-3.907-.293 1.045 1.191 1.63 2.842 1.63 4.43 0 3.698-2.946 6.77-8.086 6.749-.439 0-.92-.021-1.484-.084a3.1 3.1 0 0 0-1.4.648c-.564.46-.815 1.024-.815 1.546 0 .857.418 1.484 2.55 1.672 4.617.376 7.438.46 9.319 1.337 2.068.961 3.823 4.158 1.19 7.397M46.995.785C32.159.722.169 3.71.064 27.53.003 43.744 16.134 64.91 34.06 64.973c5.809.02 10.76-2.006 15.441-5.412 11.137-8.19 25.262-26.62 25.324-40.974.042-10.74-7.5-17.74-27.831-17.823" fill="#757575"/></svg>