<svg xmlns="http://www.w3.org/2000/svg" width="156" height="49" fill="none" id="svg-814214056_5190"><path d="M62.39 18.288c-.857-.355-2.194-.564-3.385-.564-2.717 0-4.367.878-4.367 2.403 0 3.49 8.755 2.173 8.734 8.232 0 3.364-3.072 5.997-7.961 5.976-2.132 0-4.2-.501-5.099-.94l.606-2.507c.899.397 2.717.773 4.242.794 2.716 0 4.472-1.129 4.472-2.758 0-3.887-8.86-2.403-8.818-8.546 0-3.28 2.967-5.203 7.94-5.161 2.047 0 3.76.397 4.534.752l-.898 2.34v-.02Zm-49.876-.208c-.857-.356-2.194-.565-3.385-.565-2.717 0-4.367.878-4.367 2.403 0 3.49 8.755 2.173 8.734 8.232 0 3.364-3.072 5.997-7.961 5.976-2.131 0-4.2-.501-5.098-.94l.585-2.507c.898.397 2.716.773 4.262.794 2.716 0 4.45-1.129 4.472-2.758 0-3.887-8.839-2.403-8.818-8.546 0-3.28 2.967-5.203 7.94-5.161 2.048 0 3.761.397 4.534.752l-.878 2.34-.02-.02Zm4.096 15.754.083-18.471 11.283.063.355 2.256-7.919-.041-.02 5.328 7.103.041v2.299l-7.125-.021-.02 6.122 8.44.02-.375 2.446-11.806-.042Zm126.726.543.084-18.45 11.283.042.355 2.257-7.919-.021-.021 5.328 7.104.02-.021 2.32-7.104-.042-.021 6.122 8.441.042-.376 2.445-11.805-.063Zm-99.188-.417-9.36-12.517-.063 12.474-2.947-.02.084-18.471 3.03.02 9.36 12.454.042-12.411 2.967.02-.083 18.45h-3.03Zm92.25.396-9.382-12.495-.042 12.454-2.946-.021.084-18.45h3.03l9.36 12.474.042-12.433 2.946.021-.083 18.45h-3.009Zm-42.29-2.57c5.077 0 7.459-2.946 7.48-7.292 0-4.242-2.34-6.29-6.227-6.29h-3.196l-.063 13.582h2.006Zm-.251-16.089c3.845 0 6.227.44 8.274 1.902 2.09 1.504 3.385 4.346 3.385 7-.021 6.122-4.241 9.59-12.537 9.548h-4.638l.083-18.491h5.433v.041Zm21.499 10.97-.042 7.585h-3.719l.042-7.543-6.561-10.949 4.033.02 4.68 7.857 4.827-7.814h3.364l-6.624 10.844ZM75.511 32.1c-3.782 0-5.934-3.155-5.934-7.209 0-3.865 2.361-7.209 5.997-7.188 3.636 0 5.934 3.155 5.913 7.125 0 3.657-2.32 7.272-5.997 7.272m.105-16.988c-5.475-.02-9.946 4.263-9.967 9.737-.02 5.537 3.782 9.779 9.862 9.8 5.516.02 9.904-4.242 9.946-9.904.021-5.391-3.949-9.612-9.841-9.633ZM54.952 1.322a17.281 17.281 0 0 0-3.76-.397c-1.275 0-2.55.125-3.762.376-1.212-.272-2.465-.397-3.76-.418a18.81 18.81 0 0 0-3.762.376 17.09 17.09 0 0 0-3.74-.397c-7.605-.042-14.27 4.66-18.053 11.764h1.463c3.677-6.561 9.966-10.824 17.07-10.803.356 0 .711 0 1.066.042-5.056 1.734-9.34 5.62-12.098 10.782h1.463c3.03-5.37 7.773-9.194 13.33-10.406.795.167 1.568.418 2.32.69-3.97 2.026-7.313 5.432-9.59 9.736h1.441c2.299-4.095 5.642-7.313 9.57-9.13.94.46 1.86.982 2.737 1.608C44.401 7.11 42.248 9.7 40.66 12.71h1.442c1.525-2.695 3.51-5.014 5.788-6.811 2.236 1.755 4.137 4.053 5.642 6.707l.041.083s.084.084.167.084c.126 0 .23-.104.23-.23l-.041-.125C52.465 9.72 50.584 7.38 48.39 5.522a18.29 18.29 0 0 1 3.26-1.923c3.824 1.818 7.083 4.994 9.36 9.006l.042.063.042.083s.084.105.168.105c.125 0 .25-.105.25-.251l-.063-.126-.041-.083c-2.152-3.95-5.245-7.146-8.86-9.152a17.63 17.63 0 0 1 2.884-.878C60.845 3.579 65.504 7.34 68.47 12.563l.146.23s.084.084.167.084c.147 0 .23-.105.23-.23l-.083-.147c-2.675-4.93-6.75-8.67-11.597-10.426a13.234 13.234 0 0 1 1.818-.084c6.958.042 13.101 4.2 16.758 10.552l.125.23.063.084s.083.104.167.104c.125 0 .23-.104.23-.25l-.042-.126-.084-.146C72.61 5.584 66.09 1.05 58.692 1.029a18.52 18.52 0 0 0-3.74.376m-5.035.69a18.562 18.562 0 0 1 1.88-.105c.376 0 .732 0 1.087.042a20.14 20.14 0 0 0-1.567.627c-.46-.209-.92-.397-1.4-.564Zm-7.71-.042a18.906 18.906 0 0 1 1.88-.104c.376 0 .731 0 1.108.041a17.42 17.42 0 0 0-1.568.627c-.46-.209-.919-.397-1.4-.564m2.78 1.254c.96-.376 1.943-.69 2.967-.92.814.188 1.63.418 2.402.71a18.916 18.916 0 0 0-2.883 1.798 20.782 20.782 0 0 0-2.466-1.61m29.586 36.149-.168.209c-3.76 5.119-9.298 8.337-15.482 8.316-.606 0-1.212-.042-1.818-.105 4.095-1.441 7.668-4.304 10.322-8.128l.062-.125s.021-.063.021-.105a.242.242 0 0 0-.25-.25c-.105 0-.189.062-.23.167l-.105.146c-2.988 4.075-7.083 6.958-11.743 7.96a17.712 17.712 0 0 1-2.883-.898c2.925-1.588 5.474-3.907 7.522-6.79l.209-.272s.02-.063.02-.104a.254.254 0 0 0-.25-.251c-.104 0-.209.083-.23.167l-.23.292c-2.13 2.884-4.847 5.162-7.898 6.582a20.46 20.46 0 0 1-3.238-1.943 23.15 23.15 0 0 0 4.095-4.45l.188-.293s.02-.063.02-.084a.241.241 0 0 0-.25-.25c-.104 0-.209.062-.23.167l-.23.334a21.695 21.695 0 0 1-4.095 4.2c-1.65-1.296-3.113-2.883-4.388-4.701h-1.546c1.38 2.11 3.03 3.949 4.91 5.432a18.009 18.009 0 0 1-2.758 1.567c-3.176-1.504-5.976-3.949-8.128-7.041h-1.525c2.152 3.28 4.973 5.934 8.253 7.627-.773.271-1.546.5-2.34.668-4.743-1.066-8.9-4.095-11.868-8.337h-1.546c2.695 4.096 6.415 7.188 10.719 8.713-.355.021-.71.021-1.066.021-6.29-.02-11.91-3.447-15.629-8.776h-1.525c3.844 5.914 9.883 9.716 16.674 9.737 1.274 0 2.528-.104 3.76-.376 1.212.272 2.466.397 3.74.397 1.275 0 2.55-.104 3.762-.376 1.212.272 2.465.397 3.74.397 1.274 0 2.528-.105 3.76-.376 1.213.271 2.466.397 3.741.397 6.624.02 12.558-3.552 16.486-9.173l.083-.146v-.105a.241.241 0 0 0-.25-.25c-.105 0-.188.083-.23.167m-29.754 7.167c.836-.46 1.65-.961 2.424-1.546a18.098 18.098 0 0 0 2.8 1.776c-.753.271-1.547.501-2.34.668a16.874 16.874 0 0 1-2.863-.898m4.806 1.233c.46-.168.919-.335 1.358-.544.501.23 1.003.439 1.525.627-.355 0-.71.021-1.066.021a17.25 17.25 0 0 1-1.817-.105Zm-7.502-.042c.46-.167.92-.335 1.359-.544.501.23 1.023.44 1.546.606-.355.021-.71.021-1.066.021-.606 0-1.233-.041-1.818-.104" fill="#757575"/></svg>